<svg xmlns="http://www.w3.org/2000/svg" xmlns:xlink="http://www.w3.org/1999/xlink" width="851" zoomAndPan="magnify" viewBox="0 0 638.25 236.249991" height="315" preserveAspectRatio="xMidYMid meet" version="1.2"><defs><clipPath id="be5a898c3e"><path d="M 0.636719 0 L 636.867188 0 L 636.867188 235.503906 L 0.636719 235.503906 Z M 0.636719 0 "/></clipPath><linearGradient x1="0" gradientTransform="matrix(0.747627,0,0,0.747627,0.636088,0)" y1="157.5" x2="850.999965" gradientUnits="userSpaceOnUse" y2="157.5" id="22c6fffd3c"><stop style="stop-color:#0097b2;stop-opacity:1;" offset="0"/><stop style="stop-color:#0097b2;stop-opacity:1;" offset="0.0078125"/><stop style="stop-color:#0198b1;stop-opacity:1;" offset="0.015625"/><stop style="stop-color:#0298b0;stop-opacity:1;" offset="0.0234375"/><stop style="stop-color:#0399af;stop-opacity:1;" offset="0.03125"/><stop style="stop-color:#0499af;stop-opacity:1;" offset="0.0390625"/><stop style="stop-color:#059aae;stop-opacity:1;" offset="0.046875"/><stop style="stop-color:#069aad;stop-opacity:1;" offset="0.0546875"/><stop style="stop-color:#079bad;stop-opacity:1;" offset="0.0625"/><stop style="stop-color:#089bac;stop-opacity:1;" offset="0.0703125"/><stop style="stop-color:#099cab;stop-opacity:1;" offset="0.078125"/><stop style="stop-color:#0a9cab;stop-opacity:1;" offset="0.0859375"/><stop style="stop-color:#0b9daa;stop-opacity:1;" offset="0.09375"/><stop style="stop-color:#0c9da9;stop-opacity:1;" offset="0.101562"/><stop style="stop-color:#0d9ea8;stop-opacity:1;" offset="0.109375"/><stop style="stop-color:#0e9ea8;stop-opacity:1;" offset="0.117188"/><stop style="stop-color:#0f9fa7;stop-opacity:1;" offset="0.125"/><stop style="stop-color:#109fa6;stop-opacity:1;" offset="0.132812"/><stop style="stop-color:#11a0a6;stop-opacity:1;" offset="0.140625"/><stop style="stop-color:#12a1a5;stop-opacity:1;" offset="0.148438"/><stop style="stop-color:#13a1a4;stop-opacity:1;" offset="0.15625"/><stop style="stop-color:#14a2a3;stop-opacity:1;" offset="0.164062"/><stop style="stop-color:#15a2a3;stop-opacity:1;" offset="0.171875"/><stop style="stop-color:#16a3a2;stop-opacity:1;" offset="0.179688"/><stop style="stop-color:#17a3a1;stop-opacity:1;" offset="0.1875"/><stop style="stop-color:#18a4a1;stop-opacity:1;" offset="0.195312"/><stop style="stop-color:#19a4a0;stop-opacity:1;" offset="0.203125"/><stop style="stop-color:#1aa59f;stop-opacity:1;" offset="0.210938"/><stop style="stop-color:#1ba59e;stop-opacity:1;" offset="0.21875"/><stop style="stop-color:#1ca69e;stop-opacity:1;" offset="0.226562"/><stop style="stop-color:#1da69d;stop-opacity:1;" offset="0.234375"/><stop style="stop-color:#1ea79c;stop-opacity:1;" offset="0.242188"/><stop style="stop-color:#1fa79c;stop-opacity:1;" offset="0.25"/><stop style="stop-color:#20a89b;stop-opacity:1;" offset="0.257812"/><stop style="stop-color:#21a89a;stop-opacity:1;" offset="0.265625"/><stop style="stop-color:#22a999;stop-opacity:1;" offset="0.273438"/><stop style="stop-color:#23a999;stop-opacity:1;" offset="0.28125"/><stop style="stop-color:#24aa98;stop-opacity:1;" offset="0.289062"/><stop style="stop-color:#25aa97;stop-opacity:1;" offset="0.296875"/><stop style="stop-color:#26ab97;stop-opacity:1;" offset="0.304688"/><stop style="stop-color:#27ab96;stop-opacity:1;" offset="0.3125"/><stop style="stop-color:#28ac95;stop-opacity:1;" offset="0.320312"/><stop style="stop-color:#29ac94;stop-opacity:1;" offset="0.328125"/><stop style="stop-color:#2aad94;stop-opacity:1;" offset="0.335938"/><stop style="stop-color:#2bad93;stop-opacity:1;" offset="0.34375"/><stop style="stop-color:#2cae92;stop-opacity:1;" offset="0.351562"/><stop style="stop-color:#2dae92;stop-opacity:1;" offset="0.359375"/><stop style="stop-color:#2eaf91;stop-opacity:1;" offset="0.367188"/><stop style="stop-color:#2faf90;stop-opacity:1;" offset="0.375"/><stop style="stop-color:#30b08f;stop-opacity:1;" offset="0.382812"/><stop style="stop-color:#31b08f;stop-opacity:1;" offset="0.390625"/><stop style="stop-color:#32b18e;stop-opacity:1;" offset="0.398438"/><stop style="stop-color:#33b28d;stop-opacity:1;" offset="0.40625"/><stop style="stop-color:#34b28d;stop-opacity:1;" offset="0.414062"/><stop style="stop-color:#35b38c;stop-opacity:1;" offset="0.421875"/><stop style="stop-color:#36b38b;stop-opacity:1;" offset="0.429688"/><stop style="stop-color:#37b48b;stop-opacity:1;" offset="0.4375"/><stop style="stop-color:#38b48a;stop-opacity:1;" offset="0.445312"/><stop style="stop-color:#39b589;stop-opacity:1;" offset="0.453125"/><stop style="stop-color:#3ab588;stop-opacity:1;" offset="0.460938"/><stop style="stop-color:#3bb688;stop-opacity:1;" offset="0.46875"/><stop style="stop-color:#3cb687;stop-opacity:1;" offset="0.476562"/><stop style="stop-color:#3db786;stop-opacity:1;" offset="0.484375"/><stop style="stop-color:#3eb786;stop-opacity:1;" offset="0.492188"/><stop style="stop-color:#3eb885;stop-opacity:1;" offset="0.5"/><stop style="stop-color:#3fb884;stop-opacity:1;" offset="0.507812"/><stop style="stop-color:#40b983;stop-opacity:1;" offset="0.515625"/><stop style="stop-color:#41b983;stop-opacity:1;" offset="0.523438"/><stop style="stop-color:#42ba82;stop-opacity:1;" offset="0.53125"/><stop style="stop-color:#43ba81;stop-opacity:1;" offset="0.539062"/><stop style="stop-color:#44bb81;stop-opacity:1;" offset="0.546875"/><stop style="stop-color:#45bb80;stop-opacity:1;" offset="0.554688"/><stop style="stop-color:#46bc7f;stop-opacity:1;" offset="0.5625"/><stop style="stop-color:#47bc7e;stop-opacity:1;" offset="0.570312"/><stop style="stop-color:#48bd7e;stop-opacity:1;" offset="0.578125"/><stop style="stop-color:#49bd7d;stop-opacity:1;" offset="0.585938"/><stop style="stop-color:#4abe7c;stop-opacity:1;" offset="0.59375"/><stop style="stop-color:#4bbe7c;stop-opacity:1;" offset="0.601562"/><stop style="stop-color:#4cbf7b;stop-opacity:1;" offset="0.609375"/><stop style="stop-color:#4dbf7a;stop-opacity:1;" offset="0.617188"/><stop style="stop-color:#4ec079;stop-opacity:1;" offset="0.625"/><stop style="stop-color:#4fc079;stop-opacity:1;" offset="0.632812"/><stop style="stop-color:#50c178;stop-opacity:1;" offset="0.640625"/><stop style="stop-color:#51c277;stop-opacity:1;" offset="0.648438"/><stop style="stop-color:#52c277;stop-opacity:1;" offset="0.65625"/><stop style="stop-color:#53c376;stop-opacity:1;" offset="0.664062"/><stop style="stop-color:#54c375;stop-opacity:1;" offset="0.671875"/><stop style="stop-color:#55c474;stop-opacity:1;" offset="0.679688"/><stop style="stop-color:#56c474;stop-opacity:1;" offset="0.6875"/><stop style="stop-color:#57c573;stop-opacity:1;" offset="0.695312"/><stop style="stop-color:#58c572;stop-opacity:1;" offset="0.703125"/><stop style="stop-color:#59c672;stop-opacity:1;" offset="0.710938"/><stop style="stop-color:#5ac671;stop-opacity:1;" offset="0.71875"/><stop style="stop-color:#5bc770;stop-opacity:1;" offset="0.726562"/><stop style="stop-color:#5cc76f;stop-opacity:1;" offset="0.734375"/><stop style="stop-color:#5dc86f;stop-opacity:1;" offset="0.742188"/><stop style="stop-color:#5ec86e;stop-opacity:1;" offset="0.75"/><stop style="stop-color:#5fc96d;stop-opacity:1;" offset="0.757812"/><stop style="stop-color:#60c96d;stop-opacity:1;" offset="0.765625"/><stop style="stop-color:#61ca6c;stop-opacity:1;" offset="0.773438"/><stop style="stop-color:#62ca6b;stop-opacity:1;" offset="0.78125"/><stop style="stop-color:#63cb6b;stop-opacity:1;" offset="0.789062"/><stop style="stop-color:#64cb6a;stop-opacity:1;" offset="0.796875"/><stop style="stop-color:#65cc69;stop-opacity:1;" offset="0.804688"/><stop style="stop-color:#66cc68;stop-opacity:1;" offset="0.8125"/><stop style="stop-color:#67cd68;stop-opacity:1;" offset="0.820312"/><stop style="stop-color:#68cd67;stop-opacity:1;" offset="0.828125"/><stop style="stop-color:#69ce66;stop-opacity:1;" offset="0.835938"/><stop style="stop-color:#6ace66;stop-opacity:1;" offset="0.84375"/><stop style="stop-color:#6bcf65;stop-opacity:1;" offset="0.851562"/><stop style="stop-color:#6ccf64;stop-opacity:1;" offset="0.859375"/><stop style="stop-color:#6dd063;stop-opacity:1;" offset="0.867188"/><stop style="stop-color:#6ed063;stop-opacity:1;" offset="0.875"/><stop style="stop-color:#6fd162;stop-opacity:1;" offset="0.882812"/><stop style="stop-color:#70d261;stop-opacity:1;" offset="0.890625"/><stop style="stop-color:#71d261;stop-opacity:1;" offset="0.898438"/><stop style="stop-color:#72d360;stop-opacity:1;" offset="0.90625"/><stop style="stop-color:#73d35f;stop-opacity:1;" offset="0.914062"/><stop style="stop-color:#74d45e;stop-opacity:1;" offset="0.921875"/><stop style="stop-color:#75d45e;stop-opacity:1;" offset="0.929688"/><stop style="stop-color:#76d55d;stop-opacity:1;" offset="0.9375"/><stop style="stop-color:#77d55c;stop-opacity:1;" offset="0.945312"/><stop style="stop-color:#78d65c;stop-opacity:1;" offset="0.953125"/><stop style="stop-color:#79d65b;stop-opacity:1;" offset="0.960938"/><stop style="stop-color:#7ad75a;stop-opacity:1;" offset="0.96875"/><stop style="stop-color:#7bd759;stop-opacity:1;" offset="0.976562"/><stop style="stop-color:#7cd859;stop-opacity:1;" offset="0.984375"/><stop style="stop-color:#7cd858;stop-opacity:1;" offset="0.992188"/><stop style="stop-color:#7dd957;stop-opacity:1;" offset="1"/></linearGradient><clipPath id="9a96cd5d8c"><path d="M 0.636719 98.851562 L 59.191406 98.851562 L 59.191406 177.351562 L 0.636719 177.351562 Z M 0.636719 98.851562 "/></clipPath><clipPath id="dcdc847d92"><path d="M 26.777344 150.761719 L 59.671875 150.761719 L 59.671875 183.65625 L 26.777344 183.65625 Z M 26.777344 150.761719 "/></clipPath><clipPath id="15e5a37a8d"><path d="M 421.847656 23.015625 L 446.519531 23.015625 L 446.519531 47.6875 L 421.847656 47.6875 Z M 421.847656 23.015625 "/></clipPath><clipPath id="25af834b05"><path d="M 395.640625 47.546875 L 404.613281 47.546875 L 404.613281 56.519531 L 395.640625 56.519531 Z M 395.640625 47.546875 "/></clipPath><clipPath id="ed5a71c8a7"><path d="M 580.046875 138.542969 L 636.867188 138.542969 L 636.867188 216.753906 L 580.046875 216.753906 Z M 580.046875 138.542969 "/></clipPath><clipPath id="75892170a3"><path d="M 614.160156 190.160156 L 636.867188 190.160156 L 636.867188 222.871094 L 614.160156 222.871094 Z M 614.160156 190.160156 "/></clipPath><clipPath id="f34cf4d827"><path d="M 186.585938 160.746094 L 211.257812 160.746094 L 211.257812 185.414062 L 186.585938 185.414062 Z M 186.585938 160.746094 "/></clipPath><clipPath id="80eb92a3c0"><path d="M 160.382812 185.273438 L 169.351562 185.273438 L 169.351562 194.246094 L 160.382812 194.246094 Z M 160.382812 185.273438 "/></clipPath><clipPath id="2c04519416"><path d="M 135.851562 23.015625 L 160.523438 23.015625 L 160.523438 47.6875 L 135.851562 47.6875 Z M 135.851562 23.015625 "/></clipPath><clipPath id="21080002e5"><path d="M 109.644531 47.546875 L 118.617188 47.546875 L 118.617188 56.519531 L 109.644531 56.519531 Z M 109.644531 47.546875 "/></clipPath><clipPath id="06902f7d0f"><path d="M 290.628906 72.316406 L 315.300781 72.316406 L 315.300781 96.988281 L 290.628906 96.988281 Z M 290.628906 72.316406 "/></clipPath><clipPath id="606aa69795"><path d="M 264.425781 96.847656 L 273.394531 96.847656 L 273.394531 105.820312 L 264.425781 105.820312 Z M 264.425781 96.847656 "/></clipPath><clipPath id="8f53a7ef17"><path d="M 618.902344 6.105469 L 636.867188 6.105469 L 636.867188 30.777344 L 618.902344 30.777344 Z M 618.902344 6.105469 "/></clipPath><clipPath id="f8b8425c2f"><path d="M 592.699219 30.636719 L 601.671875 30.636719 L 601.671875 39.609375 L 592.699219 39.609375 Z M 592.699219 30.636719 "/></clipPath><clipPath id="017ca3e754"><path d="M 447.214844 133.300781 L 471.886719 133.300781 L 471.886719 157.972656 L 447.214844 157.972656 Z M 447.214844 133.300781 "/></clipPath><clipPath id="7880f326e1"><path d="M 421.011719 157.832031 L 429.980469 157.832031 L 429.980469 166.800781 L 421.011719 166.800781 Z M 421.011719 157.832031 "/></clipPath></defs><g id="1270204444"><g clip-rule="nonzero" clip-path="url(#be5a898c3e)"><path style=" stroke:none;fill-rule:nonzero;fill:#ffffff;fill-opacity:1;" d="M 0.636719 0 L 636.867188 0 L 636.867188 235.503906 L 0.636719 235.503906 Z M 0.636719 0 "/><path style=" stroke:none;fill-rule:nonzero;fill:url(#22c6fffd3c);" d="M 0.636719 0 L 0.636719 235.503906 L 636.867188 235.503906 L 636.867188 0 Z M 0.636719 0 "/></g><g clip-rule="nonzero" clip-path="url(#9a96cd5d8c)"><path style=" stroke:none;fill-rule:nonzero;fill:#0cc0df;fill-opacity:1;" d="M 19.941406 98.851562 C -1.746094 98.851562 -19.308594 116.414062 -19.308594 138.101562 C -19.308594 159.789062 -1.746094 177.351562 19.941406 177.351562 C 41.628906 177.351562 59.191406 159.789062 59.191406 138.101562 C 59.191406 116.414062 41.628906 98.851562 19.941406 98.851562 Z M 19.941406 169.5 C 2.59375 169.5 -11.460938 155.449219 -11.460938 138.101562 C -11.460938 120.753906 2.59375 106.703125 19.941406 106.703125 C 37.289062 106.703125 51.339844 120.753906 51.339844 138.101562 C 51.339844 155.449219 37.289062 169.5 19.941406 169.5 Z M 19.941406 169.5 "/></g><g clip-rule="nonzero" clip-path="url(#dcdc847d92)"><path style=" stroke:none;fill-rule:nonzero;fill:#052f8d;fill-opacity:1;" d="M 43.128906 150.761719 C 34.09375 150.761719 26.777344 158.078125 26.777344 167.113281 C 26.777344 176.148438 34.09375 183.46875 43.128906 183.46875 C 52.167969 183.46875 59.484375 176.148438 59.484375 167.113281 C 59.484375 158.078125 52.167969 150.761719 43.128906 150.761719 Z M 43.128906 180.199219 C 35.902344 180.199219 30.046875 174.34375 30.046875 167.113281 C 30.046875 159.886719 35.902344 154.03125 43.128906 154.03125 C 50.359375 154.03125 56.214844 159.886719 56.214844 167.113281 C 56.214844 174.34375 50.359375 180.199219 43.128906 180.199219 Z M 43.128906 180.199219 "/></g><g clip-rule="nonzero" clip-path="url(#15e5a37a8d)"><path style=" stroke:none;fill-rule:nonzero;fill:#0cc0df;fill-opacity:1;" d="M 434.105469 23.015625 C 427.332031 23.015625 421.847656 28.503906 421.847656 35.277344 C 421.847656 42.050781 427.332031 47.535156 434.105469 47.535156 C 440.878906 47.535156 446.367188 42.050781 446.367188 35.277344 C 446.367188 28.503906 440.878906 23.015625 434.105469 23.015625 Z M 434.105469 45.085938 C 428.6875 45.085938 424.296875 40.695312 424.296875 35.277344 C 424.296875 29.855469 428.6875 25.46875 434.105469 25.46875 C 439.523438 25.46875 443.914062 29.855469 443.914062 35.277344 C 443.914062 40.695312 439.523438 45.085938 434.105469 45.085938 Z M 434.105469 45.085938 "/></g><g clip-rule="nonzero" clip-path="url(#25af834b05)"><path style=" stroke:none;fill-rule:nonzero;fill:#0cc0df;fill-opacity:1;" d="M 400.128906 47.546875 C 397.648438 47.546875 395.640625 49.554688 395.640625 52.03125 C 395.640625 54.511719 397.648438 56.519531 400.128906 56.519531 C 402.605469 56.519531 404.613281 54.511719 404.613281 52.03125 C 404.613281 49.554688 402.605469 47.546875 400.128906 47.546875 Z M 400.128906 55.621094 C 398.144531 55.621094 396.539062 54.015625 396.539062 52.03125 C 396.539062 50.050781 398.144531 48.445312 400.128906 48.445312 C 402.109375 48.445312 403.71875 50.050781 403.71875 52.03125 C 403.71875 54.015625 402.109375 55.621094 400.128906 55.621094 Z M 400.128906 55.621094 "/></g><g clip-rule="nonzero" clip-path="url(#ed5a71c8a7)"><path style=" stroke:none;fill-rule:nonzero;fill:#00bf63;fill-opacity:1;" d="M 619.296875 217.046875 C 640.984375 217.046875 658.546875 199.480469 658.546875 177.792969 C 658.546875 156.109375 640.984375 138.542969 619.296875 138.542969 C 597.609375 138.542969 580.046875 156.109375 580.046875 177.792969 C 580.046875 199.480469 597.609375 217.046875 619.296875 217.046875 Z M 619.296875 146.394531 C 636.644531 146.394531 650.695312 160.445312 650.695312 177.792969 C 650.695312 195.144531 636.644531 209.195312 619.296875 209.195312 C 601.949219 209.195312 587.894531 195.144531 587.894531 177.792969 C 587.894531 160.445312 601.949219 146.394531 619.296875 146.394531 Z M 619.296875 146.394531 "/></g><g clip-rule="nonzero" clip-path="url(#75892170a3)"><path style=" stroke:none;fill-rule:nonzero;fill:#c1ff72;fill-opacity:1;" d="M 630.515625 222.871094 C 639.550781 222.871094 646.867188 215.550781 646.867188 206.515625 C 646.867188 197.480469 639.550781 190.160156 630.515625 190.160156 C 621.480469 190.160156 614.160156 197.480469 614.160156 206.515625 C 614.160156 215.550781 621.480469 222.871094 630.515625 222.871094 Z M 630.515625 193.433594 C 637.742188 193.433594 643.597656 199.285156 643.597656 206.515625 C 643.597656 213.746094 637.742188 219.597656 630.515625 219.597656 C 623.285156 219.597656 617.429688 213.746094 617.429688 206.515625 C 617.429688 199.285156 623.285156 193.433594 630.515625 193.433594 Z M 630.515625 193.433594 "/></g><g clip-rule="nonzero" clip-path="url(#f34cf4d827)"><path style=" stroke:none;fill-rule:nonzero;fill:#0cc0df;fill-opacity:1;" d="M 198.84375 160.746094 C 192.070312 160.746094 186.585938 166.230469 186.585938 173.003906 C 186.585938 179.777344 192.070312 185.265625 198.84375 185.265625 C 205.617188 185.265625 211.105469 179.777344 211.105469 173.003906 C 211.105469 166.230469 205.617188 160.746094 198.84375 160.746094 Z M 198.84375 182.8125 C 193.425781 182.8125 189.039062 178.421875 189.039062 173.003906 C 189.039062 167.585938 193.425781 163.195312 198.84375 163.195312 C 204.265625 163.195312 208.652344 167.585938 208.652344 173.003906 C 208.652344 178.421875 204.265625 182.8125 198.84375 182.8125 Z M 198.84375 182.8125 "/></g><g clip-rule="nonzero" clip-path="url(#80eb92a3c0)"><path style=" stroke:none;fill-rule:nonzero;fill:#0cc0df;fill-opacity:1;" d="M 164.867188 185.273438 C 162.386719 185.273438 160.382812 187.28125 160.382812 189.761719 C 160.382812 192.238281 162.386719 194.246094 164.867188 194.246094 C 167.34375 194.246094 169.351562 192.238281 169.351562 189.761719 C 169.351562 187.28125 167.34375 185.273438 164.867188 185.273438 Z M 164.867188 193.347656 C 162.882812 193.347656 161.277344 191.742188 161.277344 189.761719 C 161.277344 187.777344 162.882812 186.171875 164.867188 186.171875 C 166.851562 186.171875 168.457031 187.777344 168.457031 189.761719 C 168.457031 191.742188 166.851562 193.347656 164.867188 193.347656 Z M 164.867188 193.347656 "/></g><g clip-rule="nonzero" clip-path="url(#2c04519416)"><path style=" stroke:none;fill-rule:nonzero;fill:#0cc0df;fill-opacity:1;" d="M 148.109375 23.015625 C 141.335938 23.015625 135.851562 28.503906 135.851562 35.277344 C 135.851562 42.050781 141.335938 47.535156 148.109375 47.535156 C 154.882812 47.535156 160.371094 42.050781 160.371094 35.277344 C 160.371094 28.503906 154.882812 23.015625 148.109375 23.015625 Z M 148.109375 45.085938 C 142.691406 45.085938 138.300781 40.695312 138.300781 35.277344 C 138.300781 29.855469 142.691406 25.46875 148.109375 25.46875 C 153.527344 25.46875 157.917969 29.855469 157.917969 35.277344 C 157.917969 40.695312 153.527344 45.085938 148.109375 45.085938 Z M 148.109375 45.085938 "/></g><g clip-rule="nonzero" clip-path="url(#21080002e5)"><path style=" stroke:none;fill-rule:nonzero;fill:#0cc0df;fill-opacity:1;" d="M 114.132812 47.546875 C 111.652344 47.546875 109.644531 49.554688 109.644531 52.03125 C 109.644531 54.511719 111.652344 56.519531 114.132812 56.519531 C 116.609375 56.519531 118.617188 54.511719 118.617188 52.03125 C 118.617188 49.554688 116.609375 47.546875 114.132812 47.546875 Z M 114.132812 55.621094 C 112.148438 55.621094 110.542969 54.015625 110.542969 52.03125 C 110.542969 50.050781 112.148438 48.445312 114.132812 48.445312 C 116.113281 48.445312 117.71875 50.050781 117.71875 52.03125 C 117.71875 54.015625 116.113281 55.621094 114.132812 55.621094 Z M 114.132812 55.621094 "/></g><g clip-rule="nonzero" clip-path="url(#06902f7d0f)"><path style=" stroke:none;fill-rule:nonzero;fill:#0cc0df;fill-opacity:1;" d="M 302.886719 72.316406 C 296.113281 72.316406 290.628906 77.804688 290.628906 84.578125 C 290.628906 91.351562 296.113281 96.835938 302.886719 96.835938 C 309.660156 96.835938 315.148438 91.351562 315.148438 84.578125 C 315.148438 77.804688 309.660156 72.316406 302.886719 72.316406 Z M 302.886719 94.386719 C 297.46875 94.386719 293.082031 89.996094 293.082031 84.578125 C 293.082031 79.160156 297.46875 74.769531 302.886719 74.769531 C 308.308594 74.769531 312.695312 79.160156 312.695312 84.578125 C 312.695312 89.996094 308.308594 94.386719 302.886719 94.386719 Z M 302.886719 94.386719 "/></g><g clip-rule="nonzero" clip-path="url(#606aa69795)"><path style=" stroke:none;fill-rule:nonzero;fill:#0cc0df;fill-opacity:1;" d="M 268.910156 96.847656 C 266.429688 96.847656 264.425781 98.855469 264.425781 101.335938 C 264.425781 103.8125 266.429688 105.820312 268.910156 105.820312 C 271.386719 105.820312 273.394531 103.8125 273.394531 101.335938 C 273.394531 98.855469 271.386719 96.847656 268.910156 96.847656 Z M 268.910156 104.921875 C 266.925781 104.921875 265.320312 103.316406 265.320312 101.335938 C 265.320312 99.351562 266.925781 97.746094 268.910156 97.746094 C 270.894531 97.746094 272.5 99.351562 272.5 101.335938 C 272.5 103.316406 270.894531 104.921875 268.910156 104.921875 Z M 268.910156 104.921875 "/></g><g clip-rule="nonzero" clip-path="url(#8f53a7ef17)"><path style=" stroke:none;fill-rule:nonzero;fill:#00bf63;fill-opacity:1;" d="M 631.164062 6.105469 C 624.390625 6.105469 618.902344 11.59375 618.902344 18.367188 C 618.902344 25.140625 624.390625 30.625 631.164062 30.625 C 637.9375 30.625 643.421875 25.140625 643.421875 18.367188 C 643.421875 11.59375 637.9375 6.105469 631.164062 6.105469 Z M 631.164062 28.175781 C 625.746094 28.175781 621.355469 23.785156 621.355469 18.367188 C 621.355469 12.949219 625.746094 8.558594 631.164062 8.558594 C 636.582031 8.558594 640.972656 12.949219 640.972656 18.367188 C 640.972656 23.785156 636.582031 28.175781 631.164062 28.175781 Z M 631.164062 28.175781 "/></g><g clip-rule="nonzero" clip-path="url(#f8b8425c2f)"><path style=" stroke:none;fill-rule:nonzero;fill:#c1ff72;fill-opacity:1;" d="M 597.183594 30.636719 C 594.707031 30.636719 592.699219 32.644531 592.699219 35.125 C 592.699219 37.601562 594.707031 39.609375 597.183594 39.609375 C 599.664062 39.609375 601.671875 37.601562 601.671875 35.125 C 601.671875 32.644531 599.664062 30.636719 597.183594 30.636719 Z M 597.183594 38.710938 C 595.203125 38.710938 593.597656 37.105469 593.597656 35.125 C 593.597656 33.140625 595.203125 31.535156 597.183594 31.535156 C 599.167969 31.535156 600.773438 33.140625 600.773438 35.125 C 600.773438 37.105469 599.167969 38.710938 597.183594 38.710938 Z M 597.183594 38.710938 "/></g><g clip-rule="nonzero" clip-path="url(#017ca3e754)"><path style=" stroke:none;fill-rule:nonzero;fill:#00bf63;fill-opacity:1;" d="M 459.472656 133.300781 C 452.699219 133.300781 447.214844 138.785156 447.214844 145.558594 C 447.214844 152.332031 452.699219 157.820312 459.472656 157.820312 C 466.246094 157.820312 471.734375 152.332031 471.734375 145.558594 C 471.734375 138.785156 466.246094 133.300781 459.472656 133.300781 Z M 459.472656 155.367188 C 454.054688 155.367188 449.667969 150.980469 449.667969 145.558594 C 449.667969 140.140625 454.054688 135.75 459.472656 135.75 C 464.894531 135.75 469.28125 140.140625 469.28125 145.558594 C 469.28125 150.980469 464.894531 155.367188 459.472656 155.367188 Z M 459.472656 155.367188 "/></g><g clip-rule="nonzero" clip-path="url(#7880f326e1)"><path style=" stroke:none;fill-rule:nonzero;fill:#c1ff72;fill-opacity:1;" d="M 425.496094 157.832031 C 423.015625 157.832031 421.011719 159.839844 421.011719 162.316406 C 421.011719 164.796875 423.015625 166.800781 425.496094 166.800781 C 427.972656 166.800781 429.980469 164.796875 429.980469 162.316406 C 429.980469 159.839844 427.972656 157.832031 425.496094 157.832031 Z M 425.496094 165.90625 C 423.511719 165.90625 421.90625 164.300781 421.90625 162.316406 C 421.90625 160.332031 423.511719 158.726562 425.496094 158.726562 C 427.476562 158.726562 429.085938 160.332031 429.085938 162.316406 C 429.085938 164.300781 427.476562 165.90625 425.496094 165.90625 Z M 425.496094 165.90625 "/></g></g></svg>